PathFileType	4	(X/Y/Z)	Patient4_TMGait_0pt4_02_right_32.trc.trc
DataRate	CameraRate	NumFrames	NumMarkers	Units	OrigDataRate	OrigDataStartFrame	OrigNumFrames
76.923076923077	76.923076923077	4	33	mm	76.923076923077	124	       141
Frame#	Time	Sacral			L.Shoulder			Chest			R.Shoulder			Neck			R.ASIS			L.ASIS			R.Thigh.Superior			R.Thigh.Lateral			R.Thigh.Inferior			R.Patella			L.Thigh.Superior			L.Thigh.Lateral			L.Thigh.Inferior			L.Patella			L.Shank.Superior			L.Shank.Lateral			L.Shank.Inferior			R.Shank.Superior			R.Shank.Lateral			R.Shank.Inferior			R.Heel			R.Midfoot.Superior			R.Midfoot.Lateral			R.Toe			L.Heel			L.Midfoot.Lateral			L.Midfoot.Superior			L.Toe			L.Elbow			L.Wrist			R.Elbow			R.Wrist			
		X1	Y1	Z1	X2	Y2	Z2	X3	Y3	Z3	X4	Y4	Z4	X5	Y5	Z5	X6	Y6	Z6	X7	Y7	Z7	X8	Y8	Z8	X9	Y9	Z9	X10	Y10	Z10	X11	Y11	Z11	X12	Y12	Z12	X13	Y13	Z13	X14	Y14	Z14	X15	Y15	Z15	X16	Y16	Z16	X17	Y17	Z17	X18	Y18	Z18	X19	Y19	Z19	X20	Y20	Z20	X21	Y21	Z21	X22	Y22	Z22	X23	Y23	Z23	X24	Y24	Z24	X25	Y25	Z25	X26	Y26	Z26	X27	Y27	Z27	X28	Y28	Z28	X29	Y29	Z29	X30	Y30	Z30	X31	Y31	Z31	X32	Y32	Z32	X33	Y33	Z33	

124	43.819000000000	843.552241508008	1001.306924498202	422.767337429678	1042.284057471660	1433.674599478348	255.977975279909	1123.527617123556	1367.530736763006	429.209943737303	1015.856260330065	1437.988470764470	590.700036817443	999.437546988010	1493.441449114839	410.290566483403	1064.762487986912	939.817033968459	558.956631365946	1070.760524448077	963.680008664205	284.033476186169	1127.504409242157	751.392460682612	535.641587080323	1068.002074597856	635.385382158549	606.049425150686	1155.206508329658	590.178466558158	529.020100276771	1177.785663120348	508.334585688475	544.007206896846	1082.148229398929	735.596005226751	309.966562205856	974.504847438100	634.709387982855	242.487889651172	1038.978480266364	544.878910153347	306.970794471051	1026.356249688351	477.019978598319	315.201475721043	993.309412351544	409.376714730754	306.008661634476	891.333089882930	305.441109403484	254.296277362557	928.418094339355	188.717172500669	325.373568982791	1157.882706135300	420.042486750343	557.289781945162	1097.392823063837	312.639139493258	624.319977097277	1159.112297760841	220.711086393179	573.896735710177	1054.641919284853	44.026631924239	552.701824372424	1222.178281403440	104.447633431415	588.267279292544	1138.386076670891	39.764720342669	626.619392496036	1343.983680699222	59.370841651393	615.183732269702	789.817444653871	39.937137097608	370.798354301917	861.212008878646	35.208275785918	288.252543340641	946.148339968630	95.503467684491	313.322927926362	1073.688568120924	40.308648104053	281.311912576525	1138.020877629276	1123.265013327528	91.081536364457	1392.143816825399	1062.570552828672	86.434242544905	881.204489309265	1116.508608134651	690.095659769098	877.961809727510	853.757774784754	683.253176988246	
125	43.832000000000	844.852096775345	999.895913037849	426.067218883870	1040.448167932371	1432.967956550449	258.534920307548	1122.796586068014	1367.572985671353	431.614242194401	1015.142937867629	1437.429350318802	593.444787380794	997.998335670461	1492.740930763105	412.905863223120	1066.766785933996	938.939697548981	561.075691173245	1071.740663379310	963.430263215368	286.350105657267	1129.938343297982	749.588560646783	537.349199896553	1068.476519801604	633.612961712340	606.402505688870	1155.899568895201	588.781832440151	529.584952026060	1177.260440695525	506.044489358903	543.609748217737	1082.332350416758	734.746801597063	311.209128974396	973.507985507735	634.597608311943	244.265288107717	1037.787225219909	544.148821618176	307.973027087495	1024.830570699806	476.083975682097	316.147088687314	990.989033971494	408.788484023943	306.926214721240	887.790872643886	305.986074897225	255.166244222494	924.124733821276	188.561131660226	325.582300990193	1156.141819256201	417.194034028610	556.771149372654	1093.942548130091	310.725049206599	623.852770059376	1153.306859999231	217.690233217622	572.706748513067	1045.065684118860	43.392153314452	551.973679336986	1213.446475885510	101.647427753123	586.874984454160	1128.877541198869	38.446017806301	625.853295621180	1335.018052214310	54.941599852600	613.672776066898	784.601456262147	40.232201573310	370.682048523695	856.040894868520	35.300955035146	288.242785032486	941.048586928988	95.526923644932	313.277886128811	1068.511444968052	40.176770968596	281.262476060220	1135.308040604727	1121.177386324275	94.756188614934	1389.343875118562	1059.553083206434	89.178093969616	884.301625233719	1114.502361487502	693.882558660153	885.480742078378	851.632887846390	686.756563936064	
126	43.845000000000	846.186110780719	998.630334504591	429.456024986829	1038.714631509080	1432.380449571976	261.200909202357	1122.128489926853	1367.698630364150	434.130948720136	1014.491811973191	1436.964526770352	596.298591440614	996.657264533893	1492.168756493784	415.624821197844	1068.754454687101	938.331693812043	563.339762348718	1072.727852707334	963.227131004659	288.806454296758	1132.432434909446	748.215435678113	538.966907791504	1069.501499077313	632.327192543012	606.935777721126	1156.919599306079	587.851707175200	530.067438694084	1177.211965994805	504.162617807450	543.325835582943	1082.590439215715	733.985944446441	312.545447489759	972.589327288053	634.551713070673	246.191614929170	1036.781052311698	543.484456280126	309.048193372135	1023.548159594910	475.153055876062	317.127501593343	988.830707364011	408.246220901303	307.889628722663	884.327278768398	306.653787164942	256.135246573240	919.886430330532	188.466192139708	325.784308843385	1154.972156111071	414.839408739029	556.452454799653	1091.373638980847	309.235512358207	623.753893952850	1148.348829842554	215.189389417480	571.755946907016	1036.542605928055	42.924196205995	551.582531148148	1205.595958049417	99.616837937567	585.810349420132	1120.458884965219	37.545936415414	625.399075367944	1327.049673077571	51.613355399196	612.485407155229	779.385128869365	40.648150205126	370.534545055747	850.887558270573	35.424081279189	288.225668539730	935.996294866659	95.564874552542	313.198230895231	1063.357233003816	40.022302854442	281.197502830204	1131.960545802542	1118.859214262635	98.644577183365	1385.768801105380	1055.551132325766	91.829813960766	887.925209228507	1112.413280159764	697.911581759258	894.231500802157	849.508212363587	690.736460561897	
127	43.858000000000	847.538000950657	997.556771420619	432.911648809407	1037.125062357613	1431.942989289223	263.958536796446	1121.522979710979	1367.919016135557	436.747956921956	1013.897677008894	1436.627065538543	599.232200502445	995.424637982140	1491.751691984033	418.429492424600	1070.671758271555	938.019991766119	565.791001965277	1073.711226328137	963.089790378787	291.422344052234	1134.884723711107	747.336744138352	540.506727321185	1071.076702306313	631.543233476483	607.717511114882	1158.221806804602	587.371863694061	530.524368102906	1177.587274614375	502.699526922846	543.259994194890	1082.913106635810	733.353513946939	314.024636145992	971.790655216346	634.585633366653	248.265979944564	1036.015387370110	542.909059354223	310.206463183170	1022.576274318960	474.235451829318	318.111975389395	986.879248741099	407.761964286669	308.875649993470	880.972473454635	307.473739329130	257.194108417614	915.726402388040	188.457986581739	325.963363502812	1154.330874816380	412.995425609452	556.389225461894	1089.644385334319	308.165835550534	624.026014291620	1144.251101161359	213.239503811525	571.073295983660	1029.178533458254	42.622690946764	551.461504000139	1198.721154867596	98.320635822520	585.080237101750	1113.207317674040	37.026328873108	625.209340449109	1320.141801517455	49.345867642063	611.659281610846	774.177564436445	41.239299138402	370.354023984664	845.755794791779	35.598157045105	288.197879465555	931.010070255543	95.623373261107	313.068405629570	1058.226403858703	39.843496472665	281.115776552320	1128.008311789569	1116.374921358036	102.748818763277	1381.399357882194	1050.548921769327	94.383660057400	892.024465542888	1110.314968284580	702.130748745547	904.166311495197	847.514101784532	695.153494818788	
